<svg width="74" height="100" viewBox="0 0 74 100" fill="none" xmlns="http://www.w3.org/2000/svg">
<path d="M27.5533 91.128C26.7 91.128 25.9106 90.9893 25.1853 90.712C24.4706 90.424 23.8466 90.024 23.3133 89.512C22.7906 88.9893 22.38 88.3813 22.0813 87.688C21.7826 86.9947 21.6333 86.232 21.6333 85.4C21.6333 84.568 21.7826 83.8053 22.0813 83.112C22.38 82.4187 22.796 81.816 23.3293 81.304C23.8626 80.7813 24.4866 80.3813 25.2013 80.104C25.9266 79.816 26.716 79.672 27.5693 79.672C28.4333 79.672 29.228 79.8213 29.9533 80.12C30.6893 80.408 31.3133 80.84 31.8253 81.416L30.7853 82.424C30.3586 81.976 29.8786 81.6453 29.3453 81.432C28.812 81.208 28.2413 81.096 27.6333 81.096C27.004 81.096 26.4173 81.2027 25.8733 81.416C25.34 81.6293 24.876 81.928 24.4813 82.312C24.0866 82.696 23.7773 83.1547 23.5533 83.688C23.34 84.2107 23.2333 84.7813 23.2333 85.4C23.2333 86.0187 23.34 86.5947 23.5533 87.128C23.7773 87.6507 24.0866 88.104 24.4813 88.488C24.876 88.872 25.34 89.1707 25.8733 89.384C26.4173 89.5973 27.004 89.704 27.6333 89.704C28.2413 89.704 28.812 89.5973 29.3453 89.384C29.8786 89.16 30.3586 88.8187 30.7853 88.36L31.8253 89.368C31.3133 89.944 30.6893 90.3813 29.9533 90.68C29.228 90.9787 28.428 91.128 27.5533 91.128ZM37.3562 91.128C36.5028 91.128 35.6868 91 34.9082 90.744C34.1295 90.4773 33.5162 90.136 33.0682 89.72L33.6602 88.472C34.0868 88.8453 34.6308 89.1547 35.2922 89.4C35.9535 89.6453 36.6415 89.768 37.3562 89.768C38.0068 89.768 38.5348 89.6933 38.9402 89.544C39.3455 89.3947 39.6442 89.192 39.8362 88.936C40.0282 88.6693 40.1242 88.3707 40.1242 88.04C40.1242 87.656 39.9962 87.3467 39.7402 87.112C39.4948 86.8773 39.1695 86.6907 38.7642 86.552C38.3695 86.4027 37.9322 86.2747 37.4522 86.168C36.9722 86.0613 36.4868 85.9387 35.9962 85.8C35.5162 85.6507 35.0735 85.464 34.6682 85.24C34.2735 85.016 33.9535 84.7173 33.7082 84.344C33.4628 83.96 33.3402 83.4693 33.3402 82.872C33.3402 82.296 33.4895 81.768 33.7882 81.288C34.0975 80.7973 34.5668 80.408 35.1962 80.12C35.8362 79.8213 36.6468 79.672 37.6282 79.672C38.2788 79.672 38.9242 79.7573 39.5642 79.928C40.2042 80.0987 40.7588 80.344 41.2282 80.664L40.7002 81.944C40.2202 81.624 39.7135 81.3947 39.1802 81.256C38.6468 81.1067 38.1295 81.032 37.6282 81.032C36.9988 81.032 36.4815 81.112 36.0762 81.272C35.6708 81.432 35.3722 81.6453 35.1802 81.912C34.9988 82.1787 34.9082 82.4773 34.9082 82.808C34.9082 83.2027 35.0308 83.5173 35.2762 83.752C35.5322 83.9867 35.8575 84.1733 36.2522 84.312C36.6575 84.4507 37.1002 84.5787 37.5802 84.696C38.0602 84.8027 38.5402 84.9253 39.0202 85.064C39.5108 85.2027 39.9535 85.384 40.3482 85.608C40.7535 85.832 41.0788 86.1307 41.3242 86.504C41.5695 86.8773 41.6922 87.3573 41.6922 87.944C41.6922 88.5093 41.5375 89.0373 41.2282 89.528C40.9188 90.008 40.4388 90.3973 39.7882 90.696C39.1482 90.984 38.3375 91.128 37.3562 91.128ZM47.2937 91.128C46.4403 91.128 45.6243 91 44.8457 90.744C44.067 90.4773 43.4537 90.136 43.0057 89.72L43.5977 88.472C44.0243 88.8453 44.5683 89.1547 45.2297 89.4C45.891 89.6453 46.579 89.768 47.2937 89.768C47.9443 89.768 48.4723 89.6933 48.8777 89.544C49.283 89.3947 49.5817 89.192 49.7737 88.936C49.9657 88.6693 50.0617 88.3707 50.0617 88.04C50.0617 87.656 49.9337 87.3467 49.6777 87.112C49.4323 86.8773 49.107 86.6907 48.7017 86.552C48.307 86.4027 47.8697 86.2747 47.3897 86.168C46.9097 86.0613 46.4243 85.9387 45.9337 85.8C45.4537 85.6507 45.011 85.464 44.6057 85.24C44.211 85.016 43.891 84.7173 43.6457 84.344C43.4003 83.96 43.2777 83.4693 43.2777 82.872C43.2777 82.296 43.427 81.768 43.7257 81.288C44.035 80.7973 44.5043 80.408 45.1337 80.12C45.7737 79.8213 46.5843 79.672 47.5657 79.672C48.2163 79.672 48.8617 79.7573 49.5017 79.928C50.1417 80.0987 50.6963 80.344 51.1657 80.664L50.6377 81.944C50.1577 81.624 49.651 81.3947 49.1177 81.256C48.5843 81.1067 48.067 81.032 47.5657 81.032C46.9363 81.032 46.419 81.112 46.0137 81.272C45.6083 81.432 45.3097 81.6453 45.1177 81.912C44.9363 82.1787 44.8457 82.4773 44.8457 82.808C44.8457 83.2027 44.9683 83.5173 45.2137 83.752C45.4697 83.9867 45.795 84.1733 46.1897 84.312C46.595 84.4507 47.0377 84.5787 47.5177 84.696C47.9977 84.8027 48.4777 84.9253 48.9577 85.064C49.4483 85.2027 49.891 85.384 50.2857 85.608C50.691 85.832 51.0163 86.1307 51.2617 86.504C51.507 86.8773 51.6297 87.3573 51.6297 87.944C51.6297 88.5093 51.475 89.0373 51.1657 89.528C50.8563 90.008 50.3763 90.3973 49.7257 90.696C49.0857 90.984 48.275 91.128 47.2937 91.128Z" fill="black"/>
<path d="M12 0L16.5443 44.1741L37 50L57.4557 44.1741L62 0H12ZM52.7682 8.92857L52.1432 14.2076L37.1302 19.7098L37.0911 19.721H51.6094L49.9427 36.0826L37.1562 39.2857L24.2917 36.0268L23.4583 27.779H29.8255L30.2422 32.0536L37.0911 33.5379L44.2135 31.8192L44.6953 24.9442L23.0417 24.8884V24.8772L23.0156 24.8884L22.5469 19.721L37.1432 14.5089L37.9896 14.2076H21.987L21.2318 8.92857H52.7682Z" fill="#054CB7"/>
</svg>
