<svg width="74" height="100" viewBox="0 0 74 100" fill="none" xmlns="http://www.w3.org/2000/svg">
<path d="M10 0L14.5443 44.1741L34.9349 50L55.4557 44.1741L60 0H10ZM50.1302 14.2746H26.1979L26.7318 19.7879H49.5964L47.8255 36.3504L35.0781 39.3638V39.3973H34.9349L22.0833 36.3504L21.3021 27.8906H27.513L27.9687 32.1429L34.9349 33.7612L41.9271 32.1429L42.7083 25.2009H20.9766L19.3099 8.95089H50.7031L50.1302 14.2746Z" fill="#FF4D00"/>
<path d="M22.7101 79.8H24.3101V91H22.7101V79.8ZM16.2781 91H14.6781V79.8H16.2781V91ZM22.8541 86.008H16.1181V84.616H22.8541V86.008ZM29.8865 91V81.192H26.0465V79.8H35.3105V81.192H31.4705V91H29.8865ZM37.0531 91V79.8H38.3651L43.3891 88.264H42.6851L47.6451 79.8H48.9571L48.9731 91H47.4371L47.4211 82.216H47.7891L43.3731 89.64H42.6371L38.1891 82.216H38.5891V91H37.0531ZM52.3344 91V79.8H53.9344V89.608H59.9984V91H52.3344Z" fill="black"/>
</svg>
