<svg width="150" height="150" viewBox="0 0 145 100" fill="none" xmlns="http://www.w3.org/2000/svg">
<path d="M94.1071 0H50.8929C47.6395 0 45 2.63951 45 5.89286V49.1071C45 52.3605 47.6395 55 50.8929 55H94.1071C97.3605 55 100 52.3605 100 49.1071V5.89286C100 2.63951 97.3605 0 94.1071 0ZM74.9308 42.8951C74.9308 48.2478 71.7879 50.6908 67.2087 50.6908C63.0714 50.6908 60.6775 48.5547 59.4498 45.9643L63.6607 43.423C64.471 44.8594 65.2076 46.0748 66.9877 46.0748C68.6819 46.0748 69.7623 45.4118 69.7623 42.8214V25.2533H74.9308V42.8951ZM87.1585 50.6908C82.3583 50.6908 79.2522 48.4074 77.7422 45.4118L81.9531 42.981C83.058 44.7857 84.5067 46.1239 87.048 46.1239C89.1842 46.1239 90.5592 45.0558 90.5592 43.5703C90.5592 41.8025 89.1596 41.1763 86.7902 40.1328L85.5011 39.5804C81.769 37.9967 79.3013 35.9955 79.3013 31.7846C79.3013 27.9051 82.26 24.9587 86.8638 24.9587C90.154 24.9587 92.5112 26.1004 94.2054 29.096L90.1786 31.6741C89.2946 30.0904 88.3371 29.4643 86.8516 29.4643C85.3415 29.4643 84.3839 30.4219 84.3839 31.6741C84.3839 33.221 85.3415 33.8471 87.5636 34.817L88.8527 35.3694C93.2478 37.2478 95.7154 39.1752 95.7154 43.4967C95.7154 48.1373 92.0569 50.6908 87.1585 50.6908Z" fill="#F7E43F"/>
<path d="M66.5497 91.128C65.8884 91.128 65.2697 90.9893 64.6937 90.712C64.1177 90.4347 63.6484 90.0347 63.2857 89.512L64.2137 88.424C64.523 88.8507 64.8697 89.1813 65.2537 89.416C65.6484 89.64 66.0804 89.752 66.5497 89.752C67.8297 89.752 68.4697 88.9947 68.4697 87.48V81.192H64.4217V79.8H70.0537V87.4C70.0537 88.648 69.755 89.5813 69.1577 90.2C68.571 90.8187 67.7017 91.128 66.5497 91.128ZM76.5768 91.128C75.7235 91.128 74.9075 91 74.1288 90.744C73.3501 90.4773 72.7368 90.136 72.2888 89.72L72.8808 88.472C73.3075 88.8453 73.8515 89.1547 74.5128 89.4C75.1741 89.6453 75.8621 89.768 76.5768 89.768C77.2275 89.768 77.7555 89.6933 78.1608 89.544C78.5661 89.3947 78.8648 89.192 79.0568 88.936C79.2488 88.6693 79.3448 88.3707 79.3448 88.04C79.3448 87.656 79.2168 87.3467 78.9608 87.112C78.7155 86.8773 78.3901 86.6907 77.9848 86.552C77.5901 86.4027 77.1528 86.2747 76.6728 86.168C76.1928 86.0613 75.7075 85.9387 75.2168 85.8C74.7368 85.6507 74.2941 85.464 73.8888 85.24C73.4941 85.016 73.1741 84.7173 72.9288 84.344C72.6835 83.96 72.5608 83.4693 72.5608 82.872C72.5608 82.296 72.7101 81.768 73.0088 81.288C73.3181 80.7973 73.7875 80.408 74.4168 80.12C75.0568 79.8213 75.8675 79.672 76.8488 79.672C77.4995 79.672 78.1448 79.7573 78.7848 79.928C79.4248 80.0987 79.9795 80.344 80.4488 80.664L79.9208 81.944C79.4408 81.624 78.9341 81.3947 78.4008 81.256C77.8675 81.1067 77.3501 81.032 76.8488 81.032C76.2195 81.032 75.7021 81.112 75.2968 81.272C74.8915 81.432 74.5928 81.6453 74.4008 81.912C74.2195 82.1787 74.1288 82.4773 74.1288 82.808C74.1288 83.2027 74.2515 83.5173 74.4968 83.752C74.7528 83.9867 75.0781 84.1733 75.4728 84.312C75.8781 84.4507 76.3208 84.5787 76.8008 84.696C77.2808 84.8027 77.7608 84.9253 78.2408 85.064C78.7315 85.2027 79.1741 85.384 79.5688 85.608C79.9741 85.832 80.2995 86.1307 80.5448 86.504C80.7901 86.8773 80.9128 87.3573 80.9128 87.944C80.9128 88.5093 80.7581 89.0373 80.4488 89.528C80.1395 90.008 79.6595 90.3973 79.0088 90.696C78.3688 90.984 77.5581 91.128 76.5768 91.128Z" fill="black"/>
</svg>
